<mxfile host="app.diagrams.net" modified="2023-08-06T11:29:49.559Z" agent="Mozilla/5.0 (Macintosh; Intel Mac OS X 10_15_7) AppleWebKit/537.36 (KHTML, like Gecko) Chrome/112.0.0.0 YaBrowser/23.5.4.679 Yowser/2.5 Safari/537.36" version="21.3.5" etag="lLgOPoVdyRsv16ghXwq3" type="github">
  <diagram name="Страница 1" id="cOnGo78XCD4ltMvT6wue">
    <mxGraphModel>
      <root>
        <mxCell id="0" />
        <mxCell id="1" parent="0" />
      </root>
    </mxGraphModel>
  </diagram>
</mxfile>
